<mxfile host="app.diagrams.net" modified="2024-04-08T20:33:52.867Z" agent="Mozilla/5.0 (X11; Linux x86_64; rv:91.0) Gecko/20100101 Firefox/91.0" etag="pdGCggS7cGD_zXXVJcP4" version="24.2.3" type="device">
  <diagram name="Page-1" id="JUNJcVDTTsxdt1zoL32U">
    <mxGraphModel dx="1182" dy="304" grid="1" gridSize="10" guides="1" tooltips="1" connect="1" arrows="1" fold="1" page="1" pageScale="1" pageWidth="850" pageHeight="1100" math="0" shadow="0">
      <root>
        <mxCell id="0" />
        <mxCell id="1" parent="0" />
        <mxCell id="FGpzOdSh6s8dmKPGYUZQ-1" value="" style="rounded=0;whiteSpace=wrap;html=1;fillColor=none;" vertex="1" parent="1">
          <mxGeometry x="80" y="160" width="120" height="230" as="geometry" />
        </mxCell>
        <mxCell id="FGpzOdSh6s8dmKPGYUZQ-4" value="Приложения" style="rounded=0;whiteSpace=wrap;html=1;fillColor=#dae8fc;strokeColor=#000000;" vertex="1" parent="1">
          <mxGeometry x="100" y="240" width="80" height="30" as="geometry" />
        </mxCell>
        <mxCell id="FGpzOdSh6s8dmKPGYUZQ-5" value="Гостевая ОС" style="rounded=0;whiteSpace=wrap;html=1;fillColor=#f8cecc;strokeColor=#000000;" vertex="1" parent="1">
          <mxGeometry x="100" y="330" width="80" height="30" as="geometry" />
        </mxCell>
        <mxCell id="FGpzOdSh6s8dmKPGYUZQ-6" value="Виртуальная машина №1" style="text;html=1;align=center;verticalAlign=middle;whiteSpace=wrap;rounded=0;" vertex="1" parent="1">
          <mxGeometry x="110" y="170" width="60" height="30" as="geometry" />
        </mxCell>
        <mxCell id="FGpzOdSh6s8dmKPGYUZQ-8" value="" style="rounded=0;whiteSpace=wrap;html=1;fillColor=none;" vertex="1" parent="1">
          <mxGeometry x="280" y="160" width="120" height="230" as="geometry" />
        </mxCell>
        <mxCell id="FGpzOdSh6s8dmKPGYUZQ-9" value="Приложения" style="rounded=0;whiteSpace=wrap;html=1;fillColor=#dae8fc;strokeColor=#000000;" vertex="1" parent="1">
          <mxGeometry x="300" y="240" width="80" height="30" as="geometry" />
        </mxCell>
        <mxCell id="FGpzOdSh6s8dmKPGYUZQ-10" value="Гостевая ОС" style="rounded=0;whiteSpace=wrap;html=1;fillColor=#f8cecc;strokeColor=#000000;" vertex="1" parent="1">
          <mxGeometry x="300" y="330" width="80" height="30" as="geometry" />
        </mxCell>
        <mxCell id="FGpzOdSh6s8dmKPGYUZQ-11" value="Виртуальная машина №2" style="text;html=1;align=center;verticalAlign=middle;whiteSpace=wrap;rounded=0;" vertex="1" parent="1">
          <mxGeometry x="310" y="170" width="60" height="30" as="geometry" />
        </mxCell>
        <mxCell id="FGpzOdSh6s8dmKPGYUZQ-12" value="Хостовая ОС" style="rounded=0;whiteSpace=wrap;html=1;fillColor=#f8cecc;strokeColor=#000000;" vertex="1" parent="1">
          <mxGeometry x="80" y="520" width="320" height="60" as="geometry" />
        </mxCell>
        <mxCell id="FGpzOdSh6s8dmKPGYUZQ-13" value="Гипервизор" style="rounded=0;whiteSpace=wrap;html=1;fillColor=#d5e8d4;strokeColor=#000000;" vertex="1" parent="1">
          <mxGeometry x="80" y="550" width="110" height="30" as="geometry" />
        </mxCell>
        <mxCell id="FGpzOdSh6s8dmKPGYUZQ-14" value="Приложения" style="rounded=0;whiteSpace=wrap;html=1;fillColor=#dae8fc;strokeColor=#000000;" vertex="1" parent="1">
          <mxGeometry x="80" y="430" width="320" height="60" as="geometry" />
        </mxCell>
        <mxCell id="FGpzOdSh6s8dmKPGYUZQ-15" value="Аппаратные ресурсы платформы" style="rounded=0;whiteSpace=wrap;html=1;fillColor=#fff2cc;strokeColor=#000000;" vertex="1" parent="1">
          <mxGeometry x="80" y="610" width="320" height="60" as="geometry" />
        </mxCell>
      </root>
    </mxGraphModel>
  </diagram>
</mxfile>
